<svg data-v-0dd9719b="" version="1.0" xmlns="http://www.w3.org/2000/svg" xmlns:xlink="http://www.w3.org/1999/xlink" width="100%" height="100%" viewBox="0 0 340.000000 250.000000" preserveAspectRatio="xMidYMid meet" color-interpolation-filters="sRGB" style="margin: auto;"> <rect data-v-0dd9719b="" x="0" y="0" width="100%" height="100%" fill="#ffffff" fill-opacity="0" class="background"></rect> <rect data-v-0dd9719b="" x="0" y="0" width="100%" height="100%" fill="url(#watermark)" fill-opacity="1" class="watermarklayer"></rect> <g data-v-0dd9719b="" fill="#1684ac" class="basesvg" transform="translate(60.790000915527344,95.10140419006348)"><g fill-rule="" class="tp-name" transform="matrix(1,0,0,1,0,0)" opacity="1"><g transform="scale(1)"><g><g transform="translate(0, 6)" fill-opacity="0"><path d="M11.6-11.6L5.8-11.6 5.8-5.8 19.33-5.8 19.33 0 3.87 0Q0 0 0-3.87L0-3.87 0-25.13Q0-28.99 3.87-28.99L3.87-28.99 19.33-28.99 19.33-23.19 5.8-23.19 5.8-17.39 13.53-17.39 11.6-11.6ZM46.37-21.26L46.37-15.46 42.89-15.46 38.54-10.63 42.89-5.8 46.37-5.8 46.37 0 40.57 0 34.77-6.44 28.97 0 23.17 0 23.17-5.8 26.65-5.8 31-10.63 26.65-15.46 23.17-15.46 23.17-21.26 28.97-21.26 34.77-14.82 40.57-21.26 46.37-21.26ZM50.25-17.39L50.25-17.39Q50.25-21.26 54.12-21.26L54.12-21.26 69.58-21.26Q73.45-21.26 73.45-17.39L73.45-17.39 73.45-3.87Q73.45 0 69.58 0L69.58 0 57.98 0 59.92-5.8 67.65-5.8 67.65-15.46 56.05-15.46 56.05 7.73 50.25 7.73 50.25-17.39ZM77.31-3.87L77.31-17.39Q77.31-21.26 81.18-21.26L81.18-21.26 96.64-21.26Q100.5-21.26 100.5-17.39L100.5-17.39 100.5 0 94.71 0 94.69-15.46 83.11-15.46 83.11-5.8 92.77-5.8 90.84 0 81.2 0Q77.31 0 77.31-3.87L77.31-3.87ZM110.17 0L104.37 0 104.37-17.39Q104.37-21.26 108.24-21.26L108.24-21.26 123.72-21.26Q127.58-21.26 127.58-17.39L127.58-17.39 127.58 0 121.78 0 121.76-15.46 110.17-15.46 110.17 0ZM154.62-21.28L152.71-15.48 137.23-15.48 137.23-13.53 150.76-13.53Q154.62-13.53 154.62-9.68L154.62-9.68 154.62-3.88Q154.62-0.02 150.76-0.02L150.76-0.02 131.43-0.02 131.43-5.8 148.82-5.82 148.82-7.75 135.29-7.75Q131.43-7.75 131.43-11.6L131.43-11.6 131.43-17.39Q131.43-21.28 135.29-21.28L135.29-21.28 154.62-21.28ZM158.49-28.99L164.29-28.99 162.35-23.19 158.49-23.19 158.49-28.99ZM158.49 0L164.29 0 164.29-21.26 158.49-21.26 158.49 0ZM191.34-17.39L191.34-3.87Q191.34 0 187.48 0L187.48 0 172.02 0Q168.15 0 168.15-3.87L168.15-3.87 168.15-17.39Q168.15-21.26 172.02-21.26L172.02-21.26 187.48-21.26Q191.34-21.26 191.34-17.39L191.34-17.39ZM185.55-15.46L173.95-15.46 173.95-5.8 185.55-5.8 185.55-15.46ZM201.01 0L195.21 0 195.21-17.39Q195.21-21.26 199.08-21.26L199.08-21.26 214.56-21.26Q218.42-21.26 218.42-17.39L218.42-17.39 218.42 0 212.62 0 212.61-15.46 201.01-15.46 201.01 0Z" transform="translate(0, 28.989999771118164)"></path></g><g filter="url(#text-effect-sticker-shadow-obGTQQtJRuup8UZMOJjEq)" stroke="#000" stroke-width="6" stroke-linecap="round" stroke-linejoin="round" paint-order="stroke"><path d="M11.6-11.6L5.8-11.6 5.8-5.8 19.33-5.8 19.33 0 3.87 0Q0 0 0-3.87L0-3.87 0-25.13Q0-28.99 3.87-28.99L3.87-28.99 19.33-28.99 19.33-23.19 5.8-23.19 5.8-17.39 13.53-17.39 11.6-11.6ZM46.37-21.26L46.37-15.46 42.89-15.46 38.54-10.63 42.89-5.8 46.37-5.8 46.37 0 40.57 0 34.77-6.44 28.97 0 23.17 0 23.17-5.8 26.65-5.8 31-10.63 26.65-15.46 23.17-15.46 23.17-21.26 28.97-21.26 34.77-14.82 40.57-21.26 46.37-21.26ZM50.25-17.39L50.25-17.39Q50.25-21.26 54.12-21.26L54.12-21.26 69.58-21.26Q73.45-21.26 73.45-17.39L73.45-17.39 73.45-3.87Q73.45 0 69.58 0L69.58 0 57.98 0 59.92-5.8 67.65-5.8 67.65-15.46 56.05-15.46 56.05 7.73 50.25 7.73 50.25-17.39ZM77.31-3.87L77.31-17.39Q77.31-21.26 81.18-21.26L81.18-21.26 96.64-21.26Q100.5-21.26 100.5-17.39L100.5-17.39 100.5 0 94.71 0 94.69-15.46 83.11-15.46 83.11-5.8 92.77-5.8 90.84 0 81.2 0Q77.31 0 77.31-3.87L77.31-3.87ZM110.17 0L104.37 0 104.37-17.39Q104.37-21.26 108.24-21.26L108.24-21.26 123.72-21.26Q127.58-21.26 127.58-17.39L127.58-17.39 127.58 0 121.78 0 121.76-15.46 110.17-15.46 110.17 0ZM154.62-21.28L152.71-15.48 137.23-15.48 137.23-13.53 150.76-13.53Q154.62-13.53 154.62-9.68L154.62-9.68 154.62-3.88Q154.62-0.02 150.76-0.02L150.76-0.02 131.43-0.02 131.43-5.8 148.82-5.82 148.82-7.75 135.29-7.75Q131.43-7.75 131.43-11.6L131.43-11.6 131.43-17.39Q131.43-21.28 135.29-21.28L135.29-21.28 154.62-21.28ZM158.49-28.99L164.29-28.99 162.35-23.19 158.49-23.19 158.49-28.99ZM158.49 0L164.29 0 164.29-21.26 158.49-21.26 158.49 0ZM191.34-17.39L191.34-3.87Q191.34 0 187.48 0L187.48 0 172.02 0Q168.15 0 168.15-3.87L168.15-3.87 168.15-17.39Q168.15-21.26 172.02-21.26L172.02-21.26 187.48-21.26Q191.34-21.26 191.34-17.39L191.34-17.39ZM185.55-15.46L173.95-15.46 173.95-5.8 185.55-5.8 185.55-15.46ZM201.01 0L195.21 0 195.21-17.39Q195.21-21.26 199.08-21.26L199.08-21.26 214.56-21.26Q218.42-21.26 218.42-17.39L218.42-17.39 218.42 0 212.62 0 212.61-15.46 201.01-15.46 201.01 0Z" transform="translate(0, 28.989999771118164)"></path></g><g stroke="#fff" stroke-width="5" stroke-linecap="round" stroke-linejoin="round" paint-order="stroke"><path d="M11.6-11.6L5.8-11.6 5.8-5.8 19.33-5.8 19.33 0 3.87 0Q0 0 0-3.87L0-3.87 0-25.13Q0-28.99 3.87-28.99L3.87-28.99 19.33-28.99 19.33-23.19 5.8-23.19 5.8-17.39 13.53-17.39 11.6-11.6ZM46.37-21.26L46.37-15.46 42.89-15.46 38.54-10.63 42.89-5.8 46.37-5.8 46.37 0 40.57 0 34.77-6.44 28.97 0 23.17 0 23.17-5.8 26.65-5.8 31-10.63 26.65-15.46 23.17-15.46 23.17-21.26 28.97-21.26 34.77-14.82 40.57-21.26 46.37-21.26ZM50.25-17.39L50.25-17.39Q50.25-21.26 54.12-21.26L54.12-21.26 69.58-21.26Q73.45-21.26 73.45-17.39L73.45-17.39 73.45-3.87Q73.45 0 69.58 0L69.58 0 57.98 0 59.92-5.8 67.65-5.8 67.65-15.46 56.05-15.46 56.05 7.73 50.25 7.73 50.25-17.39ZM77.31-3.87L77.31-17.39Q77.31-21.26 81.18-21.26L81.18-21.26 96.64-21.26Q100.5-21.26 100.5-17.39L100.5-17.39 100.5 0 94.71 0 94.69-15.46 83.11-15.46 83.11-5.8 92.77-5.8 90.84 0 81.2 0Q77.31 0 77.31-3.87L77.31-3.87ZM110.17 0L104.37 0 104.37-17.39Q104.37-21.26 108.24-21.26L108.24-21.26 123.72-21.26Q127.58-21.26 127.58-17.39L127.58-17.39 127.58 0 121.78 0 121.76-15.46 110.17-15.46 110.17 0ZM154.62-21.28L152.71-15.48 137.23-15.48 137.23-13.53 150.76-13.53Q154.62-13.53 154.62-9.68L154.62-9.68 154.62-3.88Q154.62-0.02 150.76-0.02L150.76-0.02 131.43-0.02 131.43-5.8 148.82-5.82 148.82-7.75 135.29-7.75Q131.43-7.75 131.43-11.6L131.43-11.6 131.43-17.39Q131.43-21.28 135.29-21.28L135.29-21.28 154.62-21.28ZM158.49-28.99L164.29-28.99 162.35-23.19 158.49-23.19 158.49-28.99ZM158.49 0L164.29 0 164.29-21.26 158.49-21.26 158.49 0ZM191.34-17.39L191.34-3.87Q191.34 0 187.48 0L187.48 0 172.02 0Q168.15 0 168.15-3.87L168.15-3.87 168.15-17.39Q168.15-21.26 172.02-21.26L172.02-21.26 187.48-21.26Q191.34-21.26 191.34-17.39L191.34-17.39ZM185.55-15.46L173.95-15.46 173.95-5.8 185.55-5.8 185.55-15.46ZM201.01 0L195.21 0 195.21-17.39Q195.21-21.26 199.08-21.26L199.08-21.26 214.56-21.26Q218.42-21.26 218.42-17.39L218.42-17.39 218.42 0 212.62 0 212.61-15.46 201.01-15.46 201.01 0Z" transform="translate(0, 28.989999771118164)"></path></g><g stroke="#000" stroke-width="1" stroke-linecap="round" stroke-linejoin="round" paint-order="stroke" data-gra-ignore-stroke="true"><path d="M11.6-11.6L5.8-11.6 5.8-5.8 19.33-5.8 19.33 0 3.87 0Q0 0 0-3.87L0-3.87 0-25.13Q0-28.99 3.87-28.99L3.87-28.99 19.33-28.99 19.33-23.19 5.8-23.19 5.8-17.39 13.53-17.39 11.6-11.6ZM46.37-21.26L46.37-15.46 42.89-15.46 38.54-10.63 42.89-5.8 46.37-5.8 46.37 0 40.57 0 34.77-6.44 28.97 0 23.17 0 23.17-5.8 26.65-5.8 31-10.63 26.65-15.46 23.17-15.46 23.17-21.26 28.97-21.26 34.77-14.82 40.57-21.26 46.37-21.26ZM50.25-17.39L50.25-17.39Q50.25-21.26 54.12-21.26L54.12-21.26 69.58-21.26Q73.45-21.26 73.45-17.39L73.45-17.39 73.45-3.87Q73.45 0 69.58 0L69.58 0 57.98 0 59.92-5.8 67.65-5.8 67.65-15.46 56.05-15.46 56.05 7.73 50.25 7.73 50.25-17.39ZM77.31-3.87L77.31-17.39Q77.31-21.26 81.18-21.26L81.18-21.26 96.64-21.26Q100.5-21.26 100.5-17.39L100.5-17.39 100.5 0 94.71 0 94.69-15.46 83.11-15.46 83.11-5.8 92.77-5.8 90.84 0 81.2 0Q77.31 0 77.31-3.87L77.31-3.87ZM110.17 0L104.37 0 104.37-17.39Q104.37-21.26 108.24-21.26L108.24-21.26 123.72-21.26Q127.58-21.26 127.58-17.39L127.58-17.39 127.58 0 121.78 0 121.76-15.46 110.17-15.46 110.17 0ZM154.62-21.28L152.71-15.48 137.23-15.48 137.23-13.53 150.76-13.53Q154.62-13.53 154.62-9.68L154.62-9.68 154.62-3.88Q154.62-0.02 150.76-0.02L150.76-0.02 131.43-0.02 131.43-5.8 148.82-5.82 148.82-7.75 135.29-7.75Q131.43-7.75 131.43-11.6L131.43-11.6 131.43-17.39Q131.43-21.28 135.29-21.28L135.29-21.28 154.62-21.28ZM158.49-28.99L164.29-28.99 162.35-23.19 158.49-23.19 158.49-28.99ZM158.49 0L164.29 0 164.29-21.26 158.49-21.26 158.49 0ZM191.34-17.39L191.34-3.87Q191.34 0 187.48 0L187.48 0 172.02 0Q168.15 0 168.15-3.87L168.15-3.87 168.15-17.39Q168.15-21.26 172.02-21.26L172.02-21.26 187.48-21.26Q191.34-21.26 191.34-17.39L191.34-17.39ZM185.55-15.46L173.95-15.46 173.95-5.8 185.55-5.8 185.55-15.46ZM201.01 0L195.21 0 195.21-17.39Q195.21-21.26 199.08-21.26L199.08-21.26 214.56-21.26Q218.42-21.26 218.42-17.39L218.42-17.39 218.42 0 212.62 0 212.61-15.46 201.01-15.46 201.01 0Z" transform="translate(0, 28.989999771118164)"></path></g><defs><filter id="text-effect-sticker-shadow-obGTQQtJRuup8UZMOJjEq" filterUnits="objectBoundingBox" width="2" height="2" x="-0.2" y="-0.2"><feDropShadow dx="0" dy="1.5" stdDeviation="0" flood-color="#f5f54b" flood-opacity="1"></feDropShadow><feDropShadow dx="0" dy="0.5" stdDeviation="0" flood-color="#000" flood-opacity="1"></feDropShadow><feDropShadow dx="0" dy="1.5" stdDeviation="0" flood-color="#21578b" flood-opacity="1"></feDropShadow></filter></defs></g></g></g> <g data-gra="path-slogan" fill-rule="" class="tp-slogan" fill="#333333" transform="matrix(0.9998867704681184,0,0,0.9998867704681184,49.151801659576314,51.72046216350388)" opacity="1"><!----> <!----> <g transform="scale(1, 1)"><g transform="scale(1)"><path d="M1.07 0L1.07-7.79L5.56-7.79L5.56-6.96L2.06-6.96L2.06-4.33L5.03-4.33L5.03-3.49L2.06-3.49L2.06 0L1.07 0ZM11.70 0.14L11.70 0.14Q10.96 0.14 10.35-0.14Q9.74-0.43 9.30-0.96Q8.86-1.49 8.61-2.24Q8.37-2.99 8.37-3.93L8.37-3.93Q8.37-4.87 8.61-5.61Q8.86-6.36 9.30-6.87Q9.74-7.39 10.35-7.66Q10.96-7.94 11.70-7.94L11.70-7.94Q12.43-7.94 13.04-7.66Q13.66-7.38 14.10-6.86Q14.55-6.34 14.79-5.60Q15.03-4.86 15.03-3.93L15.03-3.93Q15.03-2.99 14.79-2.24Q14.55-1.49 14.10-0.96Q13.66-0.43 13.04-0.14Q12.43 0.14 11.70 0.14ZM11.70-0.72L11.70-0.72Q12.22-0.72 12.64-0.95Q13.06-1.18 13.37-1.60Q13.67-2.02 13.83-2.61Q14.00-3.20 14.00-3.93L14.00-3.93Q14.00-4.66 13.83-5.24Q13.67-5.82 13.37-6.23Q13.06-6.63 12.64-6.85Q12.22-7.07 11.70-7.07L11.70-7.07Q11.17-7.07 10.75-6.85Q10.33-6.63 10.03-6.23Q9.72-5.82 9.56-5.24Q9.39-4.66 9.39-3.93L9.39-3.93Q9.39-3.20 9.56-2.61Q9.72-2.02 10.03-1.60Q10.33-1.18 10.75-0.95Q11.17-0.72 11.70-0.72ZM21.59 0.14L21.59 0.14Q20.85 0.14 20.24-0.14Q19.62-0.43 19.19-0.96Q18.75-1.49 18.50-2.24Q18.26-2.99 18.26-3.93L18.26-3.93Q18.26-4.87 18.50-5.61Q18.75-6.36 19.19-6.87Q19.62-7.39 20.24-7.66Q20.85-7.94 21.59-7.94L21.59-7.94Q22.32-7.94 22.93-7.66Q23.55-7.38 23.99-6.86Q24.44-6.34 24.68-5.60Q24.92-4.86 24.92-3.93L24.92-3.93Q24.92-2.99 24.68-2.24Q24.44-1.49 23.99-0.96Q23.55-0.43 22.93-0.14Q22.32 0.14 21.59 0.14ZM21.59-0.72L21.59-0.72Q22.11-0.72 22.53-0.95Q22.95-1.18 23.25-1.60Q23.56-2.02 23.72-2.61Q23.89-3.20 23.89-3.93L23.89-3.93Q23.89-4.66 23.72-5.24Q23.56-5.82 23.25-6.23Q22.95-6.63 22.53-6.85Q22.11-7.07 21.59-7.07L21.59-7.07Q21.06-7.07 20.64-6.85Q20.22-6.63 19.92-6.23Q19.61-5.82 19.45-5.24Q19.28-4.66 19.28-3.93L19.28-3.93Q19.28-3.20 19.45-2.61Q19.61-2.02 19.92-1.60Q20.22-1.18 20.64-0.95Q21.06-0.72 21.59-0.72ZM31.48 0.14L31.48 0.14Q30.74 0.14 30.13-0.14Q29.51-0.43 29.07-0.96Q28.64-1.49 28.39-2.24Q28.15-2.99 28.15-3.93L28.15-3.93Q28.15-4.87 28.39-5.61Q28.64-6.36 29.07-6.87Q29.51-7.39 30.13-7.66Q30.74-7.94 31.48-7.94L31.48-7.94Q32.21-7.94 32.82-7.66Q33.44-7.38 33.88-6.86Q34.33-6.34 34.57-5.60Q34.81-4.86 34.81-3.93L34.81-3.93Q34.81-2.99 34.57-2.24Q34.33-1.49 33.88-0.96Q33.44-0.43 32.82-0.14Q32.21 0.14 31.48 0.14ZM31.48-0.72L31.48-0.72Q32.00-0.72 32.42-0.95Q32.84-1.18 33.14-1.60Q33.45-2.02 33.61-2.61Q33.78-3.20 33.78-3.93L33.78-3.93Q33.78-4.66 33.61-5.24Q33.45-5.82 33.14-6.23Q32.84-6.63 32.42-6.85Q32.00-7.07 31.48-7.07L31.48-7.07Q30.95-7.07 30.53-6.85Q30.11-6.63 29.81-6.23Q29.50-5.82 29.34-5.24Q29.17-4.66 29.17-3.93L29.17-3.93Q29.17-3.20 29.34-2.61Q29.50-2.02 29.81-1.60Q30.11-1.18 30.53-0.95Q30.95-0.72 31.48-0.72ZM38.04-3.90L38.04-3.90Q38.04-4.84 38.30-5.58Q38.56-6.33 39.02-6.86Q39.49-7.38 40.12-7.66Q40.76-7.94 41.51-7.94L41.51-7.94Q42.22-7.94 42.75-7.65Q43.29-7.35 43.63-6.97L43.63-6.97L43.08-6.34Q42.77-6.68 42.39-6.87Q42.02-7.07 41.52-7.07L41.52-7.07Q40.96-7.07 40.51-6.85Q40.06-6.63 39.74-6.22Q39.42-5.81 39.24-5.23Q39.06-4.65 39.06-3.92L39.06-3.92Q39.06-3.18 39.23-2.60Q39.40-2.01 39.71-1.59Q40.02-1.18 40.47-0.95Q40.91-0.72 41.47-0.72L41.47-0.72Q42.04-0.72 42.46-0.95Q42.89-1.18 43.27-1.59L43.27-1.59L43.82-0.99Q43.36-0.45 42.78-0.15Q42.20 0.14 41.45 0.14L41.45 0.14Q40.71 0.14 40.09-0.13Q39.46-0.40 39.01-0.92Q38.55-1.44 38.29-2.19Q38.04-2.95 38.04-3.90ZM47.07-3.22L47.07-7.79L48.06-7.79L48.06-3.20Q48.06-2.50 48.20-2.02Q48.34-1.54 48.59-1.26Q48.83-0.97 49.16-0.85Q49.50-0.72 49.88-0.72L49.88-0.72Q50.27-0.72 50.60-0.85Q50.93-0.97 51.18-1.26Q51.43-1.54 51.58-2.02Q51.72-2.50 51.72-3.20L51.72-3.20L51.72-7.79L52.67-7.79L52.67-3.22Q52.67-2.28 52.45-1.64Q52.24-1.00 51.87-0.60Q51.49-0.20 50.98-0.03Q50.47 0.14 49.88 0.14L49.88 0.14Q49.28 0.14 48.77-0.03Q48.25-0.20 47.87-0.60Q47.50-1.00 47.29-1.64Q47.07-2.28 47.07-3.22L47.07-3.22ZM56.08-1.01L56.68-1.70Q57.09-1.26 57.66-0.99Q58.22-0.72 58.83-0.72L58.83-0.72Q59.60-0.72 60.03-1.08Q60.45-1.43 60.45-2.00L60.45-2.00Q60.45-2.29 60.35-2.50Q60.25-2.71 60.08-2.86Q59.91-3.01 59.67-3.12Q59.43-3.24 59.16-3.37L59.16-3.37L58.04-3.86Q57.77-3.98 57.48-4.15Q57.20-4.31 56.97-4.55Q56.75-4.79 56.61-5.12Q56.46-5.44 56.46-5.87L56.46-5.87Q56.46-6.31 56.65-6.69Q56.83-7.07 57.16-7.35Q57.48-7.63 57.93-7.78Q58.38-7.94 58.91-7.94L58.91-7.94Q59.61-7.94 60.21-7.67Q60.80-7.40 61.22-6.97L61.22-6.97L60.68-6.33Q60.32-6.68 59.89-6.87Q59.46-7.07 58.91-7.07L58.91-7.07Q58.26-7.07 57.86-6.77Q57.46-6.46 57.46-5.93L57.46-5.93Q57.46-5.64 57.57-5.45Q57.69-5.25 57.88-5.10Q58.07-4.95 58.29-4.84Q58.52-4.73 58.76-4.63L58.76-4.63L59.86-4.16Q60.19-4.02 60.49-3.83Q60.79-3.65 61.00-3.40Q61.22-3.16 61.34-2.83Q61.46-2.51 61.46-2.08L61.46-2.08Q61.46-1.62 61.28-1.21Q61.10-0.81 60.75-0.50Q60.41-0.20 59.92-0.03Q59.43 0.14 58.82 0.14L58.82 0.14Q58.00 0.14 57.29-0.17Q56.59-0.48 56.08-1.01L56.08-1.01ZM69.40 0L69.40-7.79L71.79-7.79Q72.43-7.79 72.96-7.68Q73.50-7.56 73.87-7.29Q74.25-7.02 74.45-6.58Q74.66-6.14 74.66-5.50L74.66-5.50Q74.66-4.88 74.45-4.43Q74.25-3.98 73.87-3.68Q73.49-3.39 72.96-3.24Q72.43-3.09 71.79-3.09L71.79-3.09L70.38-3.09L70.38 0L69.40 0ZM70.38-3.90L71.67-3.90Q72.69-3.90 73.18-4.28Q73.68-4.67 73.68-5.50L73.68-5.50Q73.68-6.34 73.18-6.67Q72.68-7.00 71.67-7.00L71.67-7.00L70.38-7.00L70.38-3.90ZM79.23-7.00L79.23-4.10L80.54-4.10Q81.45-4.10 81.94-4.47Q82.42-4.85 82.42-5.61L82.42-5.61Q82.42-6.38 81.94-6.69Q81.45-7.00 80.54-7.00L80.54-7.00L79.23-7.00ZM83.64 0L82.52 0L80.64-3.29L79.23-3.29L79.23 0L78.24 0L78.24-7.79L80.68-7.79Q81.27-7.79 81.78-7.68Q82.28-7.57 82.64-7.31Q83.01-7.05 83.21-6.63Q83.41-6.21 83.41-5.61L83.41-5.61Q83.41-4.69 82.94-4.15Q82.46-3.60 81.66-3.40L81.66-3.40L83.64 0ZM90.02 0.14L90.02 0.14Q89.28 0.14 88.67-0.14Q88.06-0.43 87.62-0.96Q87.18-1.49 86.94-2.24Q86.69-2.99 86.69-3.93L86.69-3.93Q86.69-4.87 86.94-5.61Q87.18-6.36 87.62-6.87Q88.06-7.39 88.67-7.66Q89.28-7.94 90.02-7.94L90.02-7.94Q90.76-7.94 91.37-7.66Q91.98-7.38 92.43-6.86Q92.87-6.34 93.12-5.60Q93.36-4.86 93.36-3.93L93.36-3.93Q93.36-2.99 93.12-2.24Q92.87-1.49 92.43-0.96Q91.98-0.43 91.37-0.14Q90.76 0.14 90.02 0.14ZM90.02-0.72L90.02-0.72Q90.54-0.72 90.97-0.95Q91.39-1.18 91.69-1.60Q91.99-2.02 92.16-2.61Q92.33-3.20 92.33-3.93L92.33-3.93Q92.33-4.66 92.16-5.24Q91.99-5.82 91.69-6.23Q91.39-6.63 90.97-6.85Q90.54-7.07 90.02-7.07L90.02-7.07Q89.50-7.07 89.08-6.85Q88.65-6.63 88.35-6.23Q88.05-5.82 87.88-5.24Q87.72-4.66 87.72-3.93L87.72-3.93Q87.72-3.20 87.88-2.61Q88.05-2.02 88.35-1.60Q88.65-1.18 89.08-0.95Q89.50-0.72 90.02-0.72ZM97.03 0L97.03-7.79L98.20-7.79L99.71-3.61L100.28-2.02L100.33-2.02L100.87-3.61L102.37-7.79L103.53-7.79L103.53 0L102.60 0L102.60-4.29Q102.60-4.81 102.64-5.44Q102.68-6.07 102.73-6.59L102.73-6.59L102.68-6.59L102.05-4.86L100.55-0.78L99.99-0.78L98.48-4.86L97.87-6.59L97.82-6.59Q97.85-6.07 97.90-5.44Q97.95-4.81 97.95-4.29L97.95-4.29L97.95 0L97.03 0ZM107.67 0L107.67-7.79L110.06-7.79Q110.70-7.79 111.24-7.68Q111.77-7.56 112.15-7.29Q112.52-7.02 112.73-6.58Q112.94-6.14 112.94-5.50L112.94-5.50Q112.94-4.88 112.73-4.43Q112.52-3.98 112.14-3.68Q111.76-3.39 111.23-3.24Q110.70-3.09 110.06-3.09L110.06-3.09L108.66-3.09L108.66 0L107.67 0ZM108.66-3.90L109.94-3.90Q110.96-3.90 111.46-4.28Q111.95-4.67 111.95-5.50L111.95-5.50Q111.95-6.34 111.45-6.67Q110.95-7.00 109.94-7.00L109.94-7.00L108.66-7.00L108.66-3.90ZM117.85 0L117.85-6.96L115.50-6.96L115.50-7.79L121.20-7.79L121.20-6.96L118.85-6.96L118.85 0L117.85 0Z" transform="translate(-1.0693805858345815, 7.937180348194449)"></path></g></g></g></g><defs v-gra="od"></defs></svg>